<?xml version="1.0" encoding="utf-8"?>
<!-- Generator: Adobe Illustrator 21.0.0, SVG Export Plug-In . SVG Version: 6.00 Build 0)  -->
<svg version="1.1" id="图层_1" xmlns="http://www.w3.org/2000/svg" xmlns:xlink="http://www.w3.org/1999/xlink" x="0px" y="0px"
	 viewBox="0 0 32 32" style="enable-background:new 0 0 32 32;" xml:space="preserve">
<title>x-check-box</title>
<g id="x-check-box">
	<g id="fork-number">
		<path id="路径" d="M18.8,16l8.5-8.5c0.8-0.8,0.8-2.1,0-2.8s-2.1-0.8-2.8,0L16,13.2L7.5,4.6c-0.8-0.8-2.1-0.8-2.8,0
			s-0.8,2.1,0,2.8l8.5,8.5l-8.5,8.5c-0.8,0.8-0.8,2.1,0,2.8c0.8,0.7,2.1,0.8,2.8,0l8.5-8.5l8.5,8.5c0.8,0.8,2.1,0.8,2.8,0
			c0.8-0.8,0.8-2.1,0-2.8l0,0L18.8,16z"/>
	</g>
</g>
</svg>
