<?xml version="1.0" encoding="utf-8"?>
<!-- Generator: Adobe Illustrator 21.0.0, SVG Export Plug-In . SVG Version: 6.00 Build 0)  -->
<svg version="1.1" id="图层_1" xmlns="http://www.w3.org/2000/svg" xmlns:xlink="http://www.w3.org/1999/xlink" x="0px" y="0px"
	 viewBox="0 0 32 32" style="enable-background:new 0 0 32 32;" xml:space="preserve">
<style type="text/css">
	.st0{fill:#999999;}
</style>
<title>telephone</title>
<g id="telephone">
	<path id="路径" class="st0" d="M24.2,31C11.4,31,1.1,20.7,1.1,7.9C1.1,4.1,4.2,1,7.9,1c0.7,0,1.7,0.1,2.2,0.4
		c0.4,0.2,0.9,0.6,1,1.1l2.1,9c0.1,0.5,0,1.1-0.3,1.4c-0.2,0.2-0.5,0.3-2.2,1.2c1.5,3.2,4,5.8,7.3,7.3c0.9-1.9,1-1.9,1.2-2.1
		c0.4-0.4,0.8-0.5,1.4-0.4c5.7,1.3,8.7,2,9,2.1c0.5,0.1,0.8,0.5,1,0.9c0.2,0.5,0.4,1.5,0.4,2.2C31,28,27.9,31,24.2,31z"/>
</g>
</svg>
